<mxfile host="65bd71144e">
    <diagram id="MjJkx4FPaV0zNKa-AEuj" name="Page-1">
        <mxGraphModel dx="1243" dy="698" grid="1" gridSize="10" guides="1" tooltips="1" connect="1" arrows="1" fold="1" page="1" pageScale="1" pageWidth="850" pageHeight="1100" math="0" shadow="0">
            <root>
                <mxCell id="0"/>
                <mxCell id="1" parent="0"/>
                <mxCell id="13" style="edgeStyle=none;html=1;fontSize=23;fontColor=#FFFFFF;" edge="1" parent="1" source="3" target="12">
                    <mxGeometry relative="1" as="geometry"/>
                </mxCell>
                <mxCell id="3" value="" style="html=1;shadow=0;dashed=0;shape=mxgraph.bootstrap.rrect;rSize=5;fillColor=#ffffff;strokeColor=#999999;fontSize=36;" vertex="1" parent="1">
                    <mxGeometry x="20" y="12.5" width="220" height="345" as="geometry"/>
                </mxCell>
                <mxCell id="4" value="Email address" style="fillColor=none;strokeColor=none;align=left;spacing=20;fontSize=14;fontColor=#000000;" vertex="1" parent="3">
                    <mxGeometry width="220" height="40" relative="1" as="geometry">
                        <mxPoint y="10" as="offset"/>
                    </mxGeometry>
                </mxCell>
                <mxCell id="5" value="email@example.com" style="html=1;shadow=0;dashed=0;shape=mxgraph.bootstrap.rrect;rSize=5;fillColor=none;strokeColor=#999999;align=left;spacing=15;fontSize=14;fontColor=#6C767D;" vertex="1" parent="3">
                    <mxGeometry width="180" height="30" relative="1" as="geometry">
                        <mxPoint x="20" y="60" as="offset"/>
                    </mxGeometry>
                </mxCell>
                <mxCell id="6" value="Password" style="fillColor=none;strokeColor=none;align=left;spacing=20;fontSize=14;fontColor=#000000;" vertex="1" parent="3">
                    <mxGeometry width="220" height="40" relative="1" as="geometry">
                        <mxPoint y="90" as="offset"/>
                    </mxGeometry>
                </mxCell>
                <mxCell id="7" value="Password" style="html=1;shadow=0;dashed=0;shape=mxgraph.bootstrap.rrect;rSize=5;fillColor=none;strokeColor=#999999;align=left;spacing=15;fontSize=14;fontColor=#6C767D;" vertex="1" parent="3">
                    <mxGeometry width="180" height="30" relative="1" as="geometry">
                        <mxPoint x="20" y="130" as="offset"/>
                    </mxGeometry>
                </mxCell>
                <mxCell id="8" value="Remember me" style="html=1;shadow=0;dashed=0;shape=mxgraph.bootstrap.rrect;rSize=2;fillColor=#EDEDED;strokeColor=#999999;align=left;fontSize=14;fontColor=#000000;labelPosition=right;verticalLabelPosition=middle;verticalAlign=middle;spacingLeft=5;spacingTop=-2;gradientColor=#DEDEDE;" vertex="1" parent="3">
                    <mxGeometry width="10" height="10" relative="1" as="geometry">
                        <mxPoint x="20" y="180" as="offset"/>
                    </mxGeometry>
                </mxCell>
                <mxCell id="9" value="Sign in" style="html=1;shadow=0;dashed=0;shape=mxgraph.bootstrap.rrect;rSize=5;fillColor=#0085FC;strokeColor=none;align=center;fontSize=14;fontColor=#FFFFFF;" vertex="1" parent="3">
                    <mxGeometry width="70" height="40" relative="1" as="geometry">
                        <mxPoint x="20" y="210" as="offset"/>
                    </mxGeometry>
                </mxCell>
                <mxCell id="10" value="" style="shape=line;strokeColor=#999999;perimeter=none;resizeWidth=1;fontSize=36;" vertex="1" parent="3">
                    <mxGeometry width="220" height="10" relative="1" as="geometry">
                        <mxPoint y="260" as="offset"/>
                    </mxGeometry>
                </mxCell>
                <mxCell id="11" value="&lt;font color=&quot;#000000&quot;&gt;New around here? Sign up&lt;br&gt;&lt;br&gt;Forgot password?&lt;/font&gt;" style="html=1;fillColor=none;strokeColor=none;align=left;spacing=20;fontSize=14;" vertex="1" parent="3">
                    <mxGeometry width="220" height="60" relative="1" as="geometry">
                        <mxPoint y="275" as="offset"/>
                    </mxGeometry>
                </mxCell>
                <mxCell id="12" value="&lt;font style=&quot;font-size: 23px;&quot; color=&quot;#ffffff&quot;&gt;On Submit we Have a post request&lt;/font&gt;" style="rounded=0;whiteSpace=wrap;html=1;fontSize=36;fontColor=#000000;" vertex="1" parent="1">
                    <mxGeometry x="320" y="90" width="280" height="190" as="geometry"/>
                </mxCell>
                <mxCell id="15" style="edgeStyle=none;html=1;fontSize=23;fontColor=#FFFFFF;entryX=1.017;entryY=0.563;entryDx=0;entryDy=0;entryPerimeter=0;" edge="1" parent="1" source="14" target="12">
                    <mxGeometry relative="1" as="geometry">
                        <mxPoint x="800" y="170" as="targetPoint"/>
                    </mxGeometry>
                </mxCell>
                <mxCell id="14" value="If this is register request than we save the data&amp;nbsp;" style="whiteSpace=wrap;html=1;aspect=fixed;fontSize=23;fontColor=#FFFFFF;" vertex="1" parent="1">
                    <mxGeometry x="1030" y="370" width="230" height="230" as="geometry"/>
                </mxCell>
                <mxCell id="17" style="edgeStyle=none;html=1;fontSize=23;fontColor=#FFFFFF;entryX=1;entryY=0.5;entryDx=0;entryDy=0;" edge="1" parent="1" source="16" target="12">
                    <mxGeometry relative="1" as="geometry">
                        <mxPoint x="790" y="170" as="targetPoint"/>
                    </mxGeometry>
                </mxCell>
                <mxCell id="16" value="If this is Login request than we will check the credential and than provide a token&amp;nbsp;" style="whiteSpace=wrap;html=1;aspect=fixed;fontSize=23;fontColor=#FFFFFF;" vertex="1" parent="1">
                    <mxGeometry x="990" y="60" width="230" height="230" as="geometry"/>
                </mxCell>
            </root>
        </mxGraphModel>
    </diagram>
</mxfile>